<svg xmlns="http://www.w3.org/2000/svg" viewBox="0 0 1200 760"><defs><linearGradient id="bg" x1="0" x2="1" y1="0" y2="1"><stop offset="0" stop-color="#9fb5c1"/><stop offset="1" stop-color="#394c5b"/></linearGradient><linearGradient id="desk" x1="0" x2="0" y1="0" y2="1"><stop offset="0" stop-color="#67584e"/><stop offset="1" stop-color="#3b332d"/></linearGradient></defs><rect width="1200" height="760" fill="url(#bg)"/><rect y="470" width="1200" height="290" fill="url(#desk)"/><g opacity=".85"><rect x="70" y="75" width="280" height="180" rx="8" fill="#17232b"/><rect x="380" y="60" width="340" height="195" rx="8" fill="#1a2730"/><rect x="750" y="90" width="370" height="165" rx="8" fill="#1c2830"/><polyline points="95,210 145,175 190,185 230,120 315,155" fill="none" stroke="#77d2ff" stroke-width="7"/><polyline points="410,205 470,130 520,165 575,95 690,150" fill="none" stroke="#f1b24a" stroke-width="7"/><g fill="#8ec8e9"><rect x="790" y="125" width="80" height="90"/><rect x="895" y="150" width="80" height="65"/><rect x="1000" y="105" width="80" height="110"/></g></g><g><circle cx="480" cy="355" r="54" fill="#d9b08c"/><rect x="430" y="410" width="100" height="175" rx="28" fill="#263642"/><rect x="398" y="565" width="165" height="80" rx="10" fill="#10171c"/><circle cx="730" cy="385" r="49" fill="#8e5d44"/><rect x="680" y="435" width="104" height="155" rx="28" fill="#526a58"/><rect x="650" y="565" width="160" height="80" rx="10" fill="#11181b"/><circle cx="940" cy="340" r="47" fill="#c58f69"/><rect x="894" y="390" width="94" height="160" rx="28" fill="#3a415c"/><rect x="865" y="530" width="160" height="78" rx="10" fill="#14181d"/><circle cx="255" cy="390" r="45" fill="#e0b28a"/><rect x="212" y="438" width="90" height="145" rx="26" fill="#6d6a61"/><rect x="185" y="555" width="150" height="74" rx="10" fill="#10171b"/></g></svg>